<svg id="Calque_1" data-name="Calque 1" xmlns="http://www.w3.org/2000/svg" viewBox="0 0 693.072 690.609"><title>logo-ae-sainte-clotilde</title><path d="M353.114,449.106c0-182.258,147.778-330.036,330.041-330.036s330.031,147.778,330.031,330.036S865.408,776.678,683.155,776.678,353.114,631.358,353.114,449.106Z" transform="translate(-336.614 -102.57)" fill="#e1e5e5" stroke="#182e41" stroke-miterlimit="10" stroke-width="33" fill-rule="evenodd"/><path d="M816.745,468.321c-52.705,13.025-96.229,30.032-130.783,24.471s-188.969-63.949-188.969-63.949,10.619-16.7,23.764-13.017c186.152,52.168,307.372,60.623,321.836,14.163,22.733,7.264,21.219,24.544,15.533,24.571" transform="translate(-336.614 -102.57)" fill="#d01c1c"/><path d="M754.27,320.237c6.636,3.667,8.808,5.8,13.2,8.908,1.832,1.3,4.453,2.615,3.776,5.316-.727,2.9-3.76,2.937-6.169,3.226-5.927.711-11.874,1.274-17.819,1.821-28.6,2.632-57.06,6.419-85.582,9.7-5.75.662-11.506,1.531-17.359.571-6.643-1.089-12.683-3.556-16.735-8.939A251.237,251.237,0,0,1,609.365,313c.191-2.937,2.474-2.175,4.072-2.1,18.228.9,36.391,2.755,54.6,3.9,11.755.738,23.451,2.1,35.245,2.539,12.247.459,24.416,2.513,36.666,3.405C744.751,321.1,749.542,321.732,754.27,320.237Z" transform="translate(-336.614 -102.57)" fill="#d01c1c"/><path d="M707.263,420.589c-2.677-7.642-1.48-10.366,6.048-12.575,9.776-2.868,20-2.948,30-4.453,30.032-4.518,60.1-8.825,90.121-13.375,3.576-.542,6.182-.093,6.626,3.764a66.623,66.623,0,0,1-4.7,34.09c-.218.515-.909.83-1.38,1.238-7.122,1.4-14.213.458-21.271-.447-12.656-1.622-25.362-2.3-38.1-2.987-11.55-.621-23.083-1.969-34.622-3.015C729.1,421.841,718.186,421.125,707.263,420.589Z" transform="translate(-336.614 -102.57)" fill="#bd1a1a"/><path d="M707.364,420.622a1.8,1.8,0,0,1,.358-.787,2.529,2.529,0,0,1,1.265-.757c2.414-.736,5.292.035,7.746.3,3.016.32,6.035.613,9.055.9,5.832.55,11.666,1.066,17.492,1.67q15.566,1.615,31.18,2.68c5,.341,10.008.676,15.014.85s10.076.994,15.085.994c4.972.413,9.94.886,14.905,1.375q3.724.368,7.448.741c1.958.195,5.233-.087,6.929.825-1.719,2.863-5.907,3.9-8.922,4.587-4.6,1.05-9.218,1.989-13.825,2.995q-13.091,2.859-26.235,5.465c-8.506,1.686-17.1,2.658-25.638,4.081-6.055.726-12.067,1.809-18.149,2.308-5.652.464-12.229.921-17.445-1.557-4.629-2.2-7.9-7.041-10.316-11.417a75.623,75.623,0,0,1-3.756-8.036C708.747,425.856,706.915,422.851,707.364,420.622Z" transform="translate(-336.614 -102.57)" fill="#971515"/><path d="M812.916,372.529a16.52,16.52,0,0,0,3.829,7.393,106.792,106.792,0,0,1-32.6,8.269c-27.584,2.69-55.184,5.221-83,5.808,3.409-6.781,3.1-10.236-2.709-14.719-12.809-9.888-27.462-13.008-43.235-9.83-7.155,1.443-9,4.307-9.17,11.771-4.715-6.48-7.243-13.1-6.638-20.711.385-4.845,2.269-6.305,7.216-5.86a23.259,23.259,0,0,1,8.949,2.9,94.442,94.442,0,0,0,28.544,9.943,32.574,32.574,0,0,1,17.577,8.759c3.654,3.6,8.225,4.054,12.918,4.137a292.341,292.341,0,0,0,59.929-5.339c10.894-2.073,22-3.272,32.375-7.581C811.381,366.206,812.7,368.712,812.916,372.529Z" transform="translate(-336.614 -102.57)" fill="#d01c1c"/><path d="M754.283,320.23a1.76,1.76,0,0,1-.428,2.236,2.6,2.6,0,0,1-1.356.271c-8.287.139-16.433-.9-24.687-1.44-8.544-.563-17.03-2.108-25.575-2.522-17.154-.832-34.226-2.579-51.332-3.948-6.783-.543-13.572-1.032-20.367-1.4-3.14-.171-6.286-.223-9.424-.431-2.962-.2-6.055-1.141-8.986-1.135a3.831,3.831,0,0,0-2.732,1.008c-1.876-3.5-3.8-5.858-3.807-9.385-.005-3.258,6.47-3.775,9.373-3.665,3.8.143,10.45.544,15.45,1.039,20.321,2.013,40.625,3.339,60.97,5.074,4.771.407,9.537.864,14.294,1.4,8.409.949,16.882,1.245,25.34,1.667,6.23.31,2.081-3.551,8.951,1.462,1.8,1.314,5.583,3.252,8.558,5.287a68.167,68.167,0,0,1,5.582,4.175C754.006,319.86,754.233,320.121,754.283,320.23Z" transform="translate(-336.614 -102.57)" fill="#d01c1c"/><path d="M607.96,300.793c9.531-2.252,31.05-3.013,40.739-4.023,16.869-1.757,42.346-1.763,55.527-2.231,17.816-.634,21.532,5.91,33.045,14.044-.287,2.429-3.134,2.223-4.748,2.1-11.97-.876-23.936-1.815-35.9-2.725-5.58-.425-11.172-.719-16.74-1.264-15.214-1.491-38.007-1.841-53.159-4.076" transform="translate(-336.614 -102.57)" fill="#e12121"/><path d="M537.361,393.76l61.151,13.22c.809.175,1.629.307,2.429.515,10.652,2.761,8.354-.426,8.806,10.831.15,3.738-1.161,3.884-4.206,3.137-17.525-4.3-34.98-9-52.682-12.41C543.871,407.322,538.463,403.573,537.361,393.76Z" transform="translate(-336.614 -102.57)" fill="#971515"/><path d="M596.822,362.507c-5.688-.717-12-2.008-16.9-6.8-4.155-4.067-3.487-9.319,1.74-11.779a26.674,26.674,0,0,1,19.847-1.347c5.606,1.78,8.164,6.554,7.129,12.045C607.694,359.656,603.45,362.7,596.822,362.507Z" transform="translate(-336.614 -102.57)" fill="#d01c1c"/><path d="M621.362,451.36c-1.444-1.7-.7-3.746-.831-5.64-.121-1.724-.026-3.463-.026-5.581-1.383,1.139-.793,3.41-2.878,3.257a68.288,68.288,0,0,1-.04-24.252c2.207-11.778,9.88-15.672,20.879-10.712,5.044,2.275,8.613,6.132,11.458,10.712a57.145,57.145,0,0,1,7.682,18.209c-2.13,2.022-3.446-.561-5.164-.907-2.61-3.114-3.168-7.232-5.237-10.628-1.9-3.121-3.627-6.341-6.662-8.551-5.16-3.757-9.69-2.967-12.912,2.566-3.677,6.315-4.7,13.306-4.863,20.545C622.687,444.045,624.067,448,621.362,451.36Z" transform="translate(-336.614 -102.57)" fill="#971515"/><path d="M532.828,395.23c-.948-1.532-1.823-3.115-2.858-4.586-2.169-3.082-4.933-4.925-8.909-3.793-.929.265-2,1.009-2.524-.306a2.461,2.461,0,0,1,.38-2.257c8.367-5.643,5.178-14.762,6.645-22.385,1.593-8.277,3.064-16.487,8.193-23.719-5.609,19-6.014,37.944,1.15,56.879Z" transform="translate(-336.614 -102.57)" fill="#971515"/><path d="M812.916,372.529c-.52-3.456-3.357-4.158-6.021-5.064,2.43-2.865.885-5.352-1.012-7.49-4.387-4.946-8.972-9.717-13.471-14.564-1.221-1.316-2.419-2.653-3.677-4.034,1.465-1.479,2.6-.343,3.631.114a210.025,210.025,0,0,1,23.077,12.536c1.674,1,2.4,1.758,1.064,3.794C813.6,362.24,812.8,367.3,812.916,372.529Z" transform="translate(-336.614 -102.57)" fill="#e12121"/><path d="M562.561,328.669q.457,8.7.916,17.394c.162,3.091,1.329,5.417,4.543,6.383,1.276.383,2.886,1.155,2.564,2.6-.345,1.542-2.133,1.294-3.41,1.057-5.658-1.049-11.425-1.777-17.959-5.629,9.738-.03,9.334-6.109,9.6-11.886.152-3.311.65-6.606.993-9.908A1.862,1.862,0,0,1,562.561,328.669Z" transform="translate(-336.614 -102.57)" fill="#d01c1c"/><path d="M538.539,422.5q-.48,1.182-.959,2.365c-1.786-5.31-2.441-11-5.131-16-1.451-2.7-2.678-6.523-6.4-5.973-3.349.5-3.755,4.232-4.355,7.139-.5,2.416-.783,4.877-1.356,8.566a39.3,39.3,0,0,1-.319-20.468c1.075-4.181,4.194-4.851,7.525-1.842,3.028,2.735,4.73,6.376,6.185,10.081A91.567,91.567,0,0,1,538.539,422.5Z" transform="translate(-336.614 -102.57)" fill="#971515"/><path d="M562.561,328.669l-2.754.009q-.053-3.725-.105-7.45c-.059-4.3-.73-8.116-6.788-8.174,7.347-5.836,15.6-8.809,25.4-10.691a14.708,14.708,0,0,1-7.4,5.585c-6.6,2.67-8.606,7.7-8.3,14.27C562.719,324.363,562.586,326.519,562.561,328.669Z" transform="translate(-336.614 -102.57)" fill="#e12121"/><path d="M649.261,467.137c.485-8.851-.562-17.461-4.114-25.658a24.028,24.028,0,0,0-2.117-3.91c-1.866-2.756-3.809-5.7-7.669-5.421-4,.288-5.112,3.7-6.376,6.755a14.654,14.654,0,0,0-.557,2.4c-.937.34-1.3.006-1.122-.958.456-3.808,1.216-7.549,3.394-10.782,2.8-4.164,6.783-4.6,10.466-1.132,4.663,4.385,6.623,10.228,8.111,16.184a56.785,56.785,0,0,1,1.079,23.626C649.375,468.484,648.917,468.21,649.261,467.137Z" transform="translate(-336.614 -102.57)" fill="#971515"/><path d="M627.306,440.341l1.122.958c.573,2.869-1.21,5.3-1.427,8.033C626.7,446.3,625.672,443.263,627.306,440.341Z" transform="translate(-336.614 -102.57)" fill="#e12121"/><path d="M649.261,467.137l1.1,1.1a11.531,11.531,0,0,1-3.254,7.468C648.021,472.059,648.641,469.6,649.261,467.137Z" transform="translate(-336.614 -102.57)" fill="#e12121"/><text transform="translate(147.675 464.047)" font-size="71" fill="#e64545" font-family="AllerDisplay, Aller Display"><tspan letter-spacing="-0.03em">A</tspan><tspan x="43.452" y="0">U</tspan><tspan x="90.453" y="0" letter-spacing="-0.03em">T</tspan><tspan x="127.941" y="0">O-</tspan><tspan x="204.62" y="0" letter-spacing="-0.025em">É</tspan><tspan x="240.262" y="0" letter-spacing="-0.05em">C</tspan><tspan x="279.95" y="0">OLE</tspan></text><text transform="translate(168.284 507.609)" font-size="48" fill="#841212" font-family="AllerDisplay, Aller Display">Sai<tspan x="65.663" y="0" letter-spacing="-0.01em">nt</tspan><tspan x="116.35" y="0" letter-spacing="0em">e-C</tspan><tspan x="189.115" y="0" letter-spacing="-0.01em">lo</tspan><tspan x="236.827" y="0">tilde</tspan></text></svg>